<svg width="16" height="20" viewBox="0 0 16 20" fill="none" xmlns="http://www.w3.org/2000/svg">
<rect x="0.5" y="4.71582" width="15" height="14.2457" stroke="#1A1A1A"/>
<path d="M10.5757 8.38462C10.5757 8.66076 10.7996 8.88462 11.0757 8.88462C11.3519 8.88462 11.5757 8.66076 11.5757 8.38462H10.5757ZM4.42188 8.38462C4.42188 8.66076 4.64573 8.88462 4.92188 8.88462C5.19802 8.88462 5.42188 8.66076 5.42188 8.38462H4.42188ZM10.5757 4.07692V8.38462H11.5757V4.07692H10.5757ZM5.42188 8.38462V4.07692H4.42188V8.38462H5.42188ZM11.5757 4.07692C11.5757 2.10144 9.97428 0.5 7.9988 0.5V1.5C9.42199 1.5 10.5757 2.65373 10.5757 4.07692H11.5757ZM5.42188 4.07692C5.42188 2.65373 6.5756 1.5 7.9988 1.5V0.5C6.02332 0.5 4.42188 2.10144 4.42188 4.07692H5.42188Z" fill="#1A1A1A"/>
</svg>
