<svg width="29" height="50" viewBox="0 0 29 50" fill="none" xmlns="http://www.w3.org/2000/svg">
<path d="M2.30261 31.8453H2.00781V23.6738H2.30261V23.8212V31.8058V31.8453ZM7.69647 25.0005C7.53486 24.7581 7.34896 24.5669 7.16849 24.4065C7.40625 24.5451 7.6163 24.7023 7.79008 24.8761C8.19639 25.2824 8.52344 25.7124 8.70445 26.1649C8.89408 26.639 8.99238 27.1685 8.99238 27.7596C8.99238 28.3506 8.89408 28.8802 8.70445 29.3542C8.52344 29.8068 8.19639 30.2367 7.79008 30.643C7.71818 30.7149 7.64008 30.784 7.55636 30.8501C7.59554 30.8066 7.63382 30.7618 7.67088 30.7155C7.94219 30.3763 8.12729 29.9285 8.28811 29.4997L8.29136 29.491L8.29429 29.4822C8.47834 28.9301 8.53574 28.3874 8.53574 27.8135C8.53574 27.2551 8.48165 26.7114 8.29791 26.2078C8.16674 25.7056 7.91527 25.3286 7.70924 25.0197C7.70496 25.0133 7.70071 25.0069 7.69647 25.0005Z" stroke="#1A1A1A"/>
<path d="M11.8487 31.899H11.5V23.7275H11.8487V31.899Z" stroke="#1A1A1A"/>
<path d="M2.76589 36.7145V36.6211H3.11464V36.7145V44.7926H2.76589V36.7145Z" stroke="#1A1A1A"/>
<path d="M12.2572 43.6596H12.2345L12.112 43.3709L9.84616 38.0299L9.38586 36.9449L9.36554 36.9928L9.21348 36.6211H9.59338L13.0567 44.8465H12.7427L12.3843 43.9703L12.2572 43.6596Z" stroke="#1A1A1A"/>
<path d="M1.40625 48.6917H28.0035V20.0983H15.5951V1H1.72995V20.314" stroke="#1A1A1A" stroke-miterlimit="10"/>
</svg>
