<svg width="31" height="32" viewBox="0 0 31 32" fill="none" xmlns="http://www.w3.org/2000/svg">
<path d="M31 16.3237C31 20.5333 30.9816 21.0616 30.9064 22.715C30.8308 24.3651 30.5696 25.4914 30.1862 26.477C29.7904 27.4965 29.2608 28.3612 28.3989 29.2228C27.5374 30.085 26.6726 30.6146 25.6535 31.0118C24.6676 31.396 23.5409 31.6576 21.8915 31.7319C20.2382 31.8058 19.7095 31.8252 15.5 31.8252C11.2905 31.8252 10.7638 31.8065 9.11045 31.7316C7.46034 31.6557 6.33401 31.3944 5.34847 31.0114C4.32902 30.6152 3.46425 30.0856 2.60271 29.2238C1.74052 28.3625 1.20965 27.4977 0.813749 26.4789C0.430448 25.4927 0.169209 24.3661 0.0936458 22.7163C0.0184064 21.0629 -1.48054e-06 20.5349 -2.03252e-06 16.3257C-2.58458e-06 12.1158 0.0184052 11.5891 0.0936441 9.93574C0.169207 8.28562 0.430445 7.15798 0.813746 6.17178C1.20964 5.15265 1.74052 4.28916 2.60271 3.42793C3.46425 2.56573 4.32902 2.03615 5.34814 1.63896C6.33401 1.25791 7.46066 0.996345 9.11012 0.918843C10.7635 0.844571 11.2905 0.825196 15.5 0.825195C19.7095 0.825195 20.2378 0.84457 21.8912 0.918842C23.5413 0.996343 24.6676 1.25791 25.6531 1.63895C26.6726 2.03614 27.5374 2.56573 28.3989 3.42793C29.2611 4.29013 29.7907 5.15232 30.1862 6.17275C30.5695 7.16088 30.8308 8.28788 30.9064 9.938C30.9816 11.5913 31 12.1177 31 16.3286L31 16.3237ZM28.2068 17.7142C28.2074 17.3015 28.2068 16.8411 28.2068 16.3237C28.2068 12.1852 28.1919 11.6947 28.1176 10.0604C28.0485 8.54912 27.796 7.7289 27.5839 7.18252C27.3029 6.45918 26.9671 5.94348 26.4246 5.40129C25.8821 4.85879 25.3654 4.52295 24.6421 4.24137C24.0964 4.02921 23.2762 3.77636 21.7649 3.70758C20.1309 3.63331 19.6401 3.61716 15.5035 3.61716C11.367 3.61716 10.8762 3.63331 9.2422 3.70758C7.73095 3.77669 6.91074 4.02921 6.36501 4.24137C5.64167 4.52231 5.12662 4.85879 4.58444 5.4013C4.04194 5.9438 3.70611 6.45886 3.42518 7.18253C3.21205 7.72826 2.96018 8.54912 2.89107 10.0604C2.8168 11.6944 2.80065 12.1852 2.80065 16.3237C2.80065 20.4626 2.8168 20.9531 2.89107 22.5871C2.96082 24.0984 3.21334 24.9186 3.4255 25.4653C3.70644 26.1886 4.04227 26.7053 4.58477 27.2478C5.12727 27.7903 5.64264 28.1261 6.3663 28.4077C6.91203 28.6199 7.73224 28.8727 9.24349 28.9415C10.8774 29.0158 11.3683 29.0306 15.5074 29.0306C19.6466 29.0306 20.1348 29.0158 21.7688 28.9415C23.28 28.8724 24.1002 28.6199 24.6466 28.4077C25.3699 28.1268 25.8866 27.7903 26.4291 27.2478C26.9716 26.7053 27.3074 26.1886 27.589 25.4653C27.8022 24.9189 28.054 24.0984 28.1235 22.5871C28.188 21.1572 28.2074 20.6031 28.2106 17.7142L28.2068 17.7142ZM25.6331 8.04988C25.6331 9.07677 24.801 9.90991 23.7738 9.90991C22.7469 9.90991 21.9138 9.07677 21.9138 8.04988C21.9138 7.023 22.7469 6.18986 23.7738 6.18986C24.8006 6.18986 25.6338 7.023 25.6338 8.04988L25.6331 8.04988ZM23.4599 16.3237C23.4599 20.7197 19.8959 24.2837 15.5 24.2837C11.1041 24.2837 7.54172 20.7197 7.54172 16.3237C7.54172 11.9278 11.1041 8.36506 15.5 8.36506C19.8959 8.36505 23.4599 11.9282 23.4599 16.3241L23.4599 16.3237ZM20.6667 16.3237C20.6667 13.4704 18.3536 11.157 15.5 11.157C12.6467 11.157 10.3333 13.4704 10.3333 16.3237C10.3333 19.1774 12.6467 21.4905 15.5 21.4905C18.3536 21.4905 20.6667 19.1774 20.6667 16.3237Z" fill="white"/>
</svg>
