<svg width="39" height="67" viewBox="0 0 39 67" fill="none" xmlns="http://www.w3.org/2000/svg">
<path d="M13.0246 37.7059C13.0246 38.594 12.8766 39.408 12.5806 40.1481C12.2846 40.8881 11.7665 41.5541 11.1745 42.1462C10.5825 42.7382 9.76843 43.1822 8.88038 43.4782C7.99233 43.7742 6.88227 43.9963 5.69821 43.9963H2.07202V31.4156H5.69821C6.88227 31.4156 7.91833 31.5636 8.88038 31.9336C9.76843 32.2296 10.5825 32.6737 11.1745 33.2657C11.7665 33.8577 12.2846 34.5238 12.5806 35.2638C12.8766 36.0038 13.0246 36.8179 13.0246 37.7059ZM11.0265 37.7799C11.0265 37.0399 10.9525 36.3739 10.7305 35.7818C10.5825 35.1898 10.2865 34.7458 9.99044 34.3017C9.69443 33.8577 9.3244 33.5617 8.95438 33.2657C8.58436 32.9697 8.14034 32.8217 7.69631 32.6737C7.25229 32.5256 6.80827 32.4516 6.29024 32.3776C5.77222 32.3036 5.32819 32.3036 4.88416 32.3036H3.84811V43.2562H4.88416C5.32819 43.2562 5.77222 43.2562 6.29024 43.1822C6.80827 43.1082 7.25229 43.0342 7.69631 42.8862C8.14034 42.7382 8.58436 42.5162 8.95438 42.2942C9.3244 41.9981 9.69443 41.7021 9.99044 41.3321C10.2865 40.9621 10.5085 40.4441 10.7305 39.852C10.9525 39.186 11.0265 38.52 11.0265 37.7799Z" fill="#070707"/>
<path d="M16.947 44.0703H15.0969V31.4896H16.947V44.0703Z" fill="#070707"/>
<path d="M7.99243 49.1766V49.9906H4.95826V61.7572H3.10816V49.9906H0V49.1766H7.99243Z" fill="#070707"/>
<path d="M18.9448 61.8313H17.0207L16.3546 60.2032H9.39826L8.73223 61.8313H7.69617L12.2844 50.8047L11.6184 49.1766H13.6165L18.9448 61.8313ZM9.76828 59.3891H15.9846L12.8764 52.0627L9.76828 59.3891Z" fill="#070707"/>
<path d="M1.92407 66.4195H38.408V27.1974H21.3871V1H2.3681V27.4934" stroke="#070707" stroke-miterlimit="10"/>
</svg>
