<svg width="31" height="32" viewBox="0 0 31 32" fill="none" xmlns="http://www.w3.org/2000/svg">
<path fill-rule="evenodd" clip-rule="evenodd" d="M2.17534 3.00054C-3.26657e-08 5.17588 -5.8953e-08 8.67704 -1.11528e-07 15.6794L-1.21226e-07 16.971C-1.738e-07 23.9733 -2.00088e-07 27.4745 2.17534 29.6498C4.35068 31.8252 7.85185 31.8252 14.8542 31.8252L16.1458 31.8252C23.1482 31.8252 26.6493 31.8252 28.8246 29.6498C31 27.4745 31 23.9733 31 16.971L31 15.6794C31 8.67704 31 5.17588 28.8246 3.00054C26.6493 0.825195 23.1482 0.825195 16.1458 0.825195L14.8542 0.825195C7.85185 0.825195 4.35068 0.825195 2.17534 3.00054ZM6.13548 10.5127L8.39641 10.5127C8.97424 10.5127 9.19163 10.7655 9.40831 11.3915C10.5141 14.6119 12.3786 17.4263 13.145 17.4263C13.4324 17.4263 13.5643 17.2939 13.5643 16.5642L13.5643 13.2354C13.5124 12.2879 13.1813 11.8781 12.9361 11.5746C12.7847 11.3872 12.666 11.2403 12.666 11.0323C12.666 10.7794 12.882 10.5127 13.2413 10.5127L16.7942 10.5127C17.2733 10.5127 17.4401 10.7688 17.4401 11.3436L17.4401 15.8218C17.4401 16.3007 17.6482 16.4683 17.7919 16.4683C18.0793 16.4683 18.3189 16.3007 18.8459 15.7738C20.4747 13.9538 21.6244 11.1519 21.6244 11.1519C21.7681 10.8168 22.0332 10.5127 22.608 10.5127L24.869 10.5127C25.5527 10.5127 25.6964 10.8646 25.5527 11.3436C25.2653 12.6607 22.5107 16.5402 22.5107 16.5402C22.2711 16.9233 22.1753 17.1149 22.5107 17.5459C22.6288 17.7113 22.8807 17.9581 23.1691 18.2404C23.4655 18.5307 23.8004 18.8587 24.0676 19.1744C25.0388 20.2667 25.7708 21.1883 25.9746 21.8234C26.161 22.4606 25.838 22.7835 25.192 22.7835L22.931 22.7835C22.3254 22.7835 22.0205 22.4444 21.3616 21.7116C21.0823 21.4009 20.7394 21.0196 20.283 20.5633C18.9416 19.2702 18.3668 19.1025 18.0314 19.1025C17.5764 19.1025 17.4402 19.2314 17.4402 19.8773L17.4402 21.9044C17.4402 22.4606 17.2624 22.7835 15.8252 22.7835C13.4299 22.7835 10.7976 21.3296 8.92929 18.6475C6.1268 14.7202 5.36029 11.7507 5.36029 11.1519C5.36029 10.8168 5.48949 10.5127 6.13548 10.5127Z" fill="white"/>
</svg>
